<?xml version="1.0" standalone="no"?>
<!DOCTYPE svg PUBLIC "-//W3C//DTD SVG 20010904//EN"
 "http://www.w3.org/TR/2001/REC-SVG-20010904/DTD/svg10.dtd">
<svg version="1.0" xmlns="http://www.w3.org/2000/svg"
 width="512.000000pt" height="512.000000pt" viewBox="0 0 512.000000 512.000000"
 preserveAspectRatio="xMidYMid meet">

<g transform="translate(0.000000,512.000000) scale(0.100000,-0.100000)"
fill="#000000" stroke="none">
<path d="M3155 4893 c-93 -8 -268 -36 -375 -59 -98 -22 -327 -89 -339 -100 -2
-1 4 -67 13 -146 20 -175 46 -521 46 -605 l0 -63 34 0 34 0 -5 150 -6 149 38
48 c65 81 225 242 318 319 107 90 234 176 375 255 l107 59 -100 -2 c-55 -1
-118 -3 -140 -5z"/>
<path d="M3260 2339 c-252 -62 -370 -74 -755 -74 -371 1 -516 12 -725 57 -154
34 -165 34 -194 4 -19 -18 -26 -36 -26 -64 0 -62 23 -81 121 -103 284 -63 485
-83 814 -83 286 0 462 15 660 56 222 45 299 87 299 163 0 27 -6 43 -23 56 -29
23 -30 23 -171 -12z"/>
<path d="M1403 1774 c0 -16 13 -19 21 -5 3 5 0 11 -7 14 -8 3 -14 -1 -14 -9z"/>
<path d="M1330 1770 c0 -5 7 -10 15 -10 8 0 15 5 15 10 0 6 -7 10 -15 10 -8 0
-15 -4 -15 -10z"/>
<path d="M3725 1770 c-3 -5 -1 -10 4 -10 6 0 11 5 11 10 0 6 -2 10 -4 10 -3 0
-8 -4 -11 -10z"/>
<path d="M3768 1748 c-3 -16 -1 -28 3 -28 5 0 9 -10 10 -22 0 -13 3 -18 5 -12
2 6 1 28 -4 50 -8 37 -9 38 -14 12z"/>
<path d="M1708 1683 c7 -3 16 -2 19 1 4 3 -2 6 -13 5 -11 0 -14 -3 -6 -6z"/>
<path d="M3762 1640 c0 -14 2 -19 5 -12 2 6 2 18 0 25 -3 6 -5 1 -5 -13z"/>
<path d="M3760 1548 c0 -4 7 -8 15 -8 8 0 15 4 15 8 0 5 -7 9 -15 9 -8 0 -15
-4 -15 -9z"/>
<path d="M3764 1495 c-3 -8 -4 -20 -2 -27 3 -7 7 -1 10 15 6 29 1 36 -8 12z"/>
<path d="M2437 1455 c3 -8 9 -12 14 -9 12 7 11 11 -5 17 -10 4 -13 1 -9 -8z"/>
<path d="M3298 1403 c7 -3 16 -2 19 1 4 3 -2 6 -13 5 -11 0 -14 -3 -6 -6z"/>
<path d="M1375 1371 c10 -9 65 -10 65 -1 0 6 -16 10 -35 8 -19 -1 -32 -4 -30
-7z"/>
<path d="M3265 1370 c-3 -5 -1 -10 4 -10 6 0 11 5 11 10 0 6 -2 10 -4 10 -3 0
-8 -4 -11 -10z"/>
<path d="M2978 1283 c12 -2 32 -2 45 0 12 2 2 4 -23 4 -25 0 -35 -2 -22 -4z"/>
<path d="M3445 1270 c-3 -5 -1 -10 4 -10 6 0 11 5 11 10 0 6 -2 10 -4 10 -3 0
-8 -4 -11 -10z"/>
<path d="M3500 1266 c4 -4 21 -4 37 2 28 10 28 10 -9 8 -21 0 -33 -5 -28 -10z"/>
<path d="M3270 1200 c-9 -6 -10 -10 -3 -10 6 0 15 5 18 10 8 12 4 12 -15 0z"/>
<path d="M1890 1190 c34 -11 60 -11 35 0 -11 5 -29 8 -40 8 -16 0 -15 -2 5 -8z"/>
<path d="M3120 1190 c0 -5 6 -10 13 -10 8 0 7 -4 -3 -10 -17 -11 -10 -13 14
-4 23 9 20 34 -4 34 -11 0 -20 -4 -20 -10z"/>
<path d="M3185 1190 c3 -5 8 -10 11 -10 2 0 4 5 4 10 0 6 -5 10 -11 10 -5 0
-7 -4 -4 -10z"/>
<path d="M2658 1113 c12 -2 30 -2 40 0 9 3 -1 5 -23 4 -22 0 -30 -2 -17 -4z"/>
</g>
</svg>
